<mxfile host="app.diagrams.net" modified="2024-05-27T00:28:11.517Z" agent="Mozilla/5.0 (Windows NT 10.0; Win64; x64) AppleWebKit/537.36 (KHTML, like Gecko) Chrome/125.0.0.0 Safari/537.36" etag="gqvNOPgvB1Zk8GJoNAnU" version="24.4.8" type="device">
  <diagram name="Página-1" id="MmKR7E6q1aVWslVU8O-m">
    <mxGraphModel dx="1231" dy="779" grid="1" gridSize="10" guides="1" tooltips="1" connect="1" arrows="1" fold="1" page="1" pageScale="1" pageWidth="1390" pageHeight="980" math="0" shadow="0">
      <root>
        <mxCell id="0" />
        <mxCell id="1" parent="0" />
        <mxCell id="VzrdgYR_R3UlmtkM9mJL-1" value="Ventas" style="rounded=1;arcSize=10;whiteSpace=wrap;html=1;align=center;" parent="1" vertex="1">
          <mxGeometry x="600" y="170" width="100" height="40" as="geometry" />
        </mxCell>
        <mxCell id="VzrdgYR_R3UlmtkM9mJL-2" value="Clientes" style="rounded=1;arcSize=10;whiteSpace=wrap;html=1;align=center;" parent="1" vertex="1">
          <mxGeometry x="230" y="180" width="100" height="40" as="geometry" />
        </mxCell>
        <mxCell id="VzrdgYR_R3UlmtkM9mJL-3" value="Productos" style="rounded=1;arcSize=10;whiteSpace=wrap;html=1;align=center;" parent="1" vertex="1">
          <mxGeometry x="930" y="180" width="100" height="40" as="geometry" />
        </mxCell>
        <mxCell id="VzrdgYR_R3UlmtkM9mJL-5" value="Empleados" style="rounded=1;arcSize=10;whiteSpace=wrap;html=1;align=center;" parent="1" vertex="1">
          <mxGeometry x="710" y="365" width="100" height="40" as="geometry" />
        </mxCell>
        <mxCell id="VzrdgYR_R3UlmtkM9mJL-9" value="tiene" style="shape=rhombus;perimeter=rhombusPerimeter;whiteSpace=wrap;html=1;align=center;" parent="1" vertex="1">
          <mxGeometry x="770" y="170" width="120" height="60" as="geometry" />
        </mxCell>
        <mxCell id="VzrdgYR_R3UlmtkM9mJL-10" value="Hace" style="shape=rhombus;perimeter=rhombusPerimeter;whiteSpace=wrap;html=1;align=center;" parent="1" vertex="1">
          <mxGeometry x="390" y="170" width="120" height="60" as="geometry" />
        </mxCell>
        <mxCell id="VzrdgYR_R3UlmtkM9mJL-25" value="n.n" style="text;html=1;align=center;verticalAlign=middle;resizable=0;points=[];autosize=1;strokeColor=none;fillColor=none;" parent="1" vertex="1">
          <mxGeometry x="810" y="140" width="40" height="30" as="geometry" />
        </mxCell>
        <mxCell id="VzrdgYR_R3UlmtkM9mJL-31" value="1.n" style="text;html=1;align=center;verticalAlign=middle;resizable=0;points=[];autosize=1;strokeColor=none;fillColor=none;" parent="1" vertex="1">
          <mxGeometry x="740" y="275" width="40" height="30" as="geometry" />
        </mxCell>
        <mxCell id="VzrdgYR_R3UlmtkM9mJL-37" value="1.n" style="text;html=1;align=center;verticalAlign=middle;resizable=0;points=[];autosize=1;strokeColor=none;fillColor=none;" parent="1" vertex="1">
          <mxGeometry x="430" y="140" width="40" height="30" as="geometry" />
        </mxCell>
        <mxCell id="VzrdgYR_R3UlmtkM9mJL-55" value="realiza" style="shape=rhombus;perimeter=rhombusPerimeter;whiteSpace=wrap;html=1;align=center;" parent="1" vertex="1">
          <mxGeometry x="635" y="270" width="110" height="60" as="geometry" />
        </mxCell>
        <mxCell id="VzrdgYR_R3UlmtkM9mJL-59" value="ID_Cliente" style="ellipse;whiteSpace=wrap;html=1;align=center;fontStyle=4" parent="1" vertex="1">
          <mxGeometry x="110" y="120" width="100" height="40" as="geometry" />
        </mxCell>
        <mxCell id="VzrdgYR_R3UlmtkM9mJL-60" value="Nombre" style="ellipse;whiteSpace=wrap;html=1;align=center;" parent="1" vertex="1">
          <mxGeometry x="110" y="170" width="100" height="40" as="geometry" />
        </mxCell>
        <mxCell id="VzrdgYR_R3UlmtkM9mJL-61" value="Apellido" style="ellipse;whiteSpace=wrap;html=1;align=center;" parent="1" vertex="1">
          <mxGeometry x="110" y="220" width="100" height="40" as="geometry" />
        </mxCell>
        <mxCell id="VzrdgYR_R3UlmtkM9mJL-62" value="Correo" style="ellipse;whiteSpace=wrap;html=1;align=center;" parent="1" vertex="1">
          <mxGeometry x="110" y="270" width="100" height="40" as="geometry" />
        </mxCell>
        <mxCell id="VzrdgYR_R3UlmtkM9mJL-64" value="Puntuación" style="ellipse;whiteSpace=wrap;html=1;align=center;" parent="1" vertex="1">
          <mxGeometry x="330" y="430" width="100" height="40" as="geometry" />
        </mxCell>
        <mxCell id="VzrdgYR_R3UlmtkM9mJL-65" value="ID_Venta" style="ellipse;whiteSpace=wrap;html=1;align=center;fontStyle=4" parent="1" vertex="1">
          <mxGeometry x="480" y="60" width="100" height="40" as="geometry" />
        </mxCell>
        <mxCell id="VzrdgYR_R3UlmtkM9mJL-66" value="Fecha" style="ellipse;whiteSpace=wrap;html=1;align=center;" parent="1" vertex="1">
          <mxGeometry x="580" y="60" width="100" height="40" as="geometry" />
        </mxCell>
        <mxCell id="VzrdgYR_R3UlmtkM9mJL-69" value="ID_Producto" style="ellipse;whiteSpace=wrap;html=1;align=center;fontStyle=4" parent="1" vertex="1">
          <mxGeometry x="1080" y="100" width="100" height="40" as="geometry" />
        </mxCell>
        <mxCell id="VzrdgYR_R3UlmtkM9mJL-70" value="Nombre" style="ellipse;whiteSpace=wrap;html=1;align=center;" parent="1" vertex="1">
          <mxGeometry x="1080" y="150" width="100" height="40" as="geometry" />
        </mxCell>
        <mxCell id="VzrdgYR_R3UlmtkM9mJL-71" value="Descripción" style="ellipse;whiteSpace=wrap;html=1;align=center;" parent="1" vertex="1">
          <mxGeometry x="1080" y="200" width="100" height="40" as="geometry" />
        </mxCell>
        <mxCell id="VzrdgYR_R3UlmtkM9mJL-72" value="Precio" style="ellipse;whiteSpace=wrap;html=1;align=center;" parent="1" vertex="1">
          <mxGeometry x="1080" y="250" width="100" height="40" as="geometry" />
        </mxCell>
        <mxCell id="VzrdgYR_R3UlmtkM9mJL-79" value="Nombre" style="ellipse;whiteSpace=wrap;html=1;align=center;" parent="1" vertex="1">
          <mxGeometry x="720" y="460" width="100" height="40" as="geometry" />
        </mxCell>
        <mxCell id="VzrdgYR_R3UlmtkM9mJL-80" value="Apellido" style="ellipse;whiteSpace=wrap;html=1;align=center;" parent="1" vertex="1">
          <mxGeometry x="820" y="460" width="100" height="40" as="geometry" />
        </mxCell>
        <mxCell id="VzrdgYR_R3UlmtkM9mJL-81" value="Puesto&amp;nbsp;" style="ellipse;whiteSpace=wrap;html=1;align=center;" parent="1" vertex="1">
          <mxGeometry x="920" y="460" width="100" height="40" as="geometry" />
        </mxCell>
        <mxCell id="VzrdgYR_R3UlmtkM9mJL-84" value="" style="endArrow=none;html=1;rounded=0;entryX=0.18;entryY=1.025;entryDx=0;entryDy=0;entryPerimeter=0;exitX=1;exitY=0.5;exitDx=0;exitDy=0;" parent="1" target="VzrdgYR_R3UlmtkM9mJL-2" edge="1" source="VzrdgYR_R3UlmtkM9mJL-62">
          <mxGeometry width="50" height="50" relative="1" as="geometry">
            <mxPoint x="210" y="300" as="sourcePoint" />
            <mxPoint x="260" y="250" as="targetPoint" />
          </mxGeometry>
        </mxCell>
        <mxCell id="VzrdgYR_R3UlmtkM9mJL-85" value="" style="endArrow=none;html=1;rounded=0;entryX=0.14;entryY=1.025;entryDx=0;entryDy=0;entryPerimeter=0;" parent="1" target="VzrdgYR_R3UlmtkM9mJL-2" edge="1">
          <mxGeometry width="50" height="50" relative="1" as="geometry">
            <mxPoint x="210" y="250" as="sourcePoint" />
            <mxPoint x="260" y="200" as="targetPoint" />
          </mxGeometry>
        </mxCell>
        <mxCell id="VzrdgYR_R3UlmtkM9mJL-86" value="" style="endArrow=none;html=1;rounded=0;" parent="1" edge="1">
          <mxGeometry width="50" height="50" relative="1" as="geometry">
            <mxPoint x="210" y="190" as="sourcePoint" />
            <mxPoint x="230" y="190" as="targetPoint" />
          </mxGeometry>
        </mxCell>
        <mxCell id="VzrdgYR_R3UlmtkM9mJL-87" value="" style="endArrow=none;html=1;rounded=0;entryX=0.115;entryY=-0.121;entryDx=0;entryDy=0;entryPerimeter=0;" parent="1" target="VzrdgYR_R3UlmtkM9mJL-2" edge="1">
          <mxGeometry width="50" height="50" relative="1" as="geometry">
            <mxPoint x="210" y="150" as="sourcePoint" />
            <mxPoint x="260" y="100" as="targetPoint" />
          </mxGeometry>
        </mxCell>
        <mxCell id="VzrdgYR_R3UlmtkM9mJL-90" value="" style="endArrow=none;html=1;rounded=0;entryX=0.34;entryY=1.025;entryDx=0;entryDy=0;exitX=0.9;exitY=0;exitDx=0;exitDy=0;entryPerimeter=0;exitPerimeter=0;" parent="1" source="VzrdgYR_R3UlmtkM9mJL-1" target="LHrGl90DR_18odaKH2Ic-17" edge="1">
          <mxGeometry width="50" height="50" relative="1" as="geometry">
            <mxPoint x="695" y="175" as="sourcePoint" />
            <mxPoint x="685" y="105" as="targetPoint" />
          </mxGeometry>
        </mxCell>
        <mxCell id="VzrdgYR_R3UlmtkM9mJL-91" value="" style="endArrow=none;html=1;rounded=0;exitX=0.323;exitY=-0.058;exitDx=0;exitDy=0;exitPerimeter=0;entryX=0.5;entryY=1;entryDx=0;entryDy=0;" parent="1" edge="1" target="VzrdgYR_R3UlmtkM9mJL-66">
          <mxGeometry width="50" height="50" relative="1" as="geometry">
            <mxPoint x="652.3" y="167.67999999999995" as="sourcePoint" />
            <mxPoint x="570" y="100" as="targetPoint" />
          </mxGeometry>
        </mxCell>
        <mxCell id="VzrdgYR_R3UlmtkM9mJL-92" value="" style="endArrow=none;html=1;rounded=0;exitX=0;exitY=0;exitDx=0;exitDy=0;entryX=0.67;entryY=1.1;entryDx=0;entryDy=0;entryPerimeter=0;" parent="1" source="VzrdgYR_R3UlmtkM9mJL-1" edge="1" target="VzrdgYR_R3UlmtkM9mJL-65">
          <mxGeometry width="50" height="50" relative="1" as="geometry">
            <mxPoint x="415" y="150" as="sourcePoint" />
            <mxPoint x="465" y="100" as="targetPoint" />
          </mxGeometry>
        </mxCell>
        <mxCell id="VzrdgYR_R3UlmtkM9mJL-95" value="" style="endArrow=none;html=1;rounded=0;exitX=0.5;exitY=0;exitDx=0;exitDy=0;" parent="1" target="LHrGl90DR_18odaKH2Ic-2" edge="1" source="VzrdgYR_R3UlmtkM9mJL-64">
          <mxGeometry width="50" height="50" relative="1" as="geometry">
            <mxPoint x="385" y="470" as="sourcePoint" />
            <mxPoint x="464" y="479.31999999999994" as="targetPoint" />
          </mxGeometry>
        </mxCell>
        <mxCell id="VzrdgYR_R3UlmtkM9mJL-98" value="" style="endArrow=none;html=1;rounded=0;exitX=0.24;exitY=-0.025;exitDx=0;exitDy=0;exitPerimeter=0;" parent="1" target="VzrdgYR_R3UlmtkM9mJL-5" edge="1" source="VzrdgYR_R3UlmtkM9mJL-79">
          <mxGeometry width="50" height="50" relative="1" as="geometry">
            <mxPoint x="810" y="450" as="sourcePoint" />
            <mxPoint x="965" y="450" as="targetPoint" />
          </mxGeometry>
        </mxCell>
        <mxCell id="VzrdgYR_R3UlmtkM9mJL-99" value="" style="endArrow=none;html=1;rounded=0;exitX=0.29;exitY=-0.05;exitDx=0;exitDy=0;exitPerimeter=0;" parent="1" target="VzrdgYR_R3UlmtkM9mJL-5" edge="1" source="VzrdgYR_R3UlmtkM9mJL-80">
          <mxGeometry width="50" height="50" relative="1" as="geometry">
            <mxPoint x="880" y="450" as="sourcePoint" />
            <mxPoint x="1060" y="450" as="targetPoint" />
          </mxGeometry>
        </mxCell>
        <mxCell id="VzrdgYR_R3UlmtkM9mJL-101" value="" style="endArrow=none;html=1;rounded=0;entryX=1;entryY=0.75;entryDx=0;entryDy=0;exitX=0.2;exitY=0;exitDx=0;exitDy=0;exitPerimeter=0;" parent="1" target="VzrdgYR_R3UlmtkM9mJL-5" edge="1" source="VzrdgYR_R3UlmtkM9mJL-81">
          <mxGeometry width="50" height="50" relative="1" as="geometry">
            <mxPoint x="930" y="430" as="sourcePoint" />
            <mxPoint x="1170" y="450" as="targetPoint" />
          </mxGeometry>
        </mxCell>
        <mxCell id="VzrdgYR_R3UlmtkM9mJL-102" value="" style="endArrow=none;html=1;rounded=0;exitX=1;exitY=0;exitDx=0;exitDy=0;" parent="1" source="VzrdgYR_R3UlmtkM9mJL-3" edge="1">
          <mxGeometry width="50" height="50" relative="1" as="geometry">
            <mxPoint x="1030" y="170" as="sourcePoint" />
            <mxPoint x="1080" y="120" as="targetPoint" />
          </mxGeometry>
        </mxCell>
        <mxCell id="VzrdgYR_R3UlmtkM9mJL-103" value="" style="endArrow=none;html=1;rounded=0;exitX=1;exitY=0.5;exitDx=0;exitDy=0;" parent="1" source="VzrdgYR_R3UlmtkM9mJL-3" edge="1">
          <mxGeometry width="50" height="50" relative="1" as="geometry">
            <mxPoint x="1030" y="220" as="sourcePoint" />
            <mxPoint x="1080" y="170" as="targetPoint" />
          </mxGeometry>
        </mxCell>
        <mxCell id="VzrdgYR_R3UlmtkM9mJL-104" value="" style="endArrow=none;html=1;rounded=0;" parent="1" edge="1">
          <mxGeometry width="50" height="50" relative="1" as="geometry">
            <mxPoint x="1030" y="210" as="sourcePoint" />
            <mxPoint x="1080" y="220" as="targetPoint" />
          </mxGeometry>
        </mxCell>
        <mxCell id="VzrdgYR_R3UlmtkM9mJL-105" value="" style="endArrow=none;html=1;rounded=0;" parent="1" source="VzrdgYR_R3UlmtkM9mJL-3" edge="1">
          <mxGeometry width="50" height="50" relative="1" as="geometry">
            <mxPoint x="1030" y="320" as="sourcePoint" />
            <mxPoint x="1080" y="270" as="targetPoint" />
          </mxGeometry>
        </mxCell>
        <mxCell id="VzrdgYR_R3UlmtkM9mJL-112" value="" style="endArrow=none;html=1;rounded=0;exitX=1;exitY=0.5;exitDx=0;exitDy=0;" parent="1" source="VzrdgYR_R3UlmtkM9mJL-2" edge="1">
          <mxGeometry relative="1" as="geometry">
            <mxPoint x="340" y="200" as="sourcePoint" />
            <mxPoint x="390" y="200" as="targetPoint" />
          </mxGeometry>
        </mxCell>
        <mxCell id="VzrdgYR_R3UlmtkM9mJL-113" value="" style="endArrow=none;html=1;rounded=0;" parent="1" edge="1">
          <mxGeometry relative="1" as="geometry">
            <mxPoint x="510" y="200" as="sourcePoint" />
            <mxPoint x="600" y="200" as="targetPoint" />
          </mxGeometry>
        </mxCell>
        <mxCell id="VzrdgYR_R3UlmtkM9mJL-114" value="" style="endArrow=none;html=1;rounded=0;" parent="1" edge="1">
          <mxGeometry relative="1" as="geometry">
            <mxPoint x="700" y="200" as="sourcePoint" />
            <mxPoint x="775" y="200" as="targetPoint" />
          </mxGeometry>
        </mxCell>
        <mxCell id="VzrdgYR_R3UlmtkM9mJL-117" value="" style="endArrow=none;html=1;rounded=0;" parent="1" edge="1">
          <mxGeometry relative="1" as="geometry">
            <mxPoint x="890" y="199.17000000000002" as="sourcePoint" />
            <mxPoint x="930" y="199" as="targetPoint" />
          </mxGeometry>
        </mxCell>
        <mxCell id="VzrdgYR_R3UlmtkM9mJL-119" value="" style="endArrow=none;html=1;rounded=0;entryX=0.273;entryY=0.167;entryDx=0;entryDy=0;entryPerimeter=0;" parent="1" target="VzrdgYR_R3UlmtkM9mJL-55" edge="1">
          <mxGeometry relative="1" as="geometry">
            <mxPoint x="660" y="210" as="sourcePoint" />
            <mxPoint x="820" y="210" as="targetPoint" />
          </mxGeometry>
        </mxCell>
        <mxCell id="LHrGl90DR_18odaKH2Ic-2" value="Satisfacción_cliente" style="shape=rhombus;perimeter=rhombusPerimeter;whiteSpace=wrap;html=1;align=center;" vertex="1" parent="1">
          <mxGeometry x="350" y="360" width="145" height="50" as="geometry" />
        </mxCell>
        <mxCell id="LHrGl90DR_18odaKH2Ic-3" value="" style="endArrow=none;html=1;rounded=0;entryX=0.75;entryY=1;entryDx=0;entryDy=0;exitX=0.5;exitY=0;exitDx=0;exitDy=0;" edge="1" parent="1" source="LHrGl90DR_18odaKH2Ic-2" target="VzrdgYR_R3UlmtkM9mJL-2">
          <mxGeometry width="50" height="50" relative="1" as="geometry">
            <mxPoint x="330" y="340" as="sourcePoint" />
            <mxPoint x="380" y="290" as="targetPoint" />
          </mxGeometry>
        </mxCell>
        <mxCell id="LHrGl90DR_18odaKH2Ic-7" value="1.n" style="text;html=1;align=center;verticalAlign=middle;resizable=0;points=[];autosize=1;strokeColor=none;fillColor=none;" vertex="1" parent="1">
          <mxGeometry x="440" y="335" width="40" height="30" as="geometry" />
        </mxCell>
        <mxCell id="LHrGl90DR_18odaKH2Ic-8" value="Teléfono" style="ellipse;whiteSpace=wrap;html=1;align=center;" vertex="1" parent="1">
          <mxGeometry x="110" y="325" width="100" height="40" as="geometry" />
        </mxCell>
        <mxCell id="LHrGl90DR_18odaKH2Ic-10" value="" style="endArrow=none;html=1;rounded=0;exitX=0.25;exitY=1;exitDx=0;exitDy=0;" edge="1" parent="1" source="VzrdgYR_R3UlmtkM9mJL-2">
          <mxGeometry relative="1" as="geometry">
            <mxPoint x="240" y="250" as="sourcePoint" />
            <mxPoint x="210" y="345" as="targetPoint" />
          </mxGeometry>
        </mxCell>
        <mxCell id="LHrGl90DR_18odaKH2Ic-14" value="" style="endArrow=none;html=1;rounded=0;entryX=0;entryY=0.5;entryDx=0;entryDy=0;" edge="1" parent="1" target="VzrdgYR_R3UlmtkM9mJL-5">
          <mxGeometry relative="1" as="geometry">
            <mxPoint x="490" y="384.5" as="sourcePoint" />
            <mxPoint x="700" y="385" as="targetPoint" />
          </mxGeometry>
        </mxCell>
        <mxCell id="LHrGl90DR_18odaKH2Ic-15" value="" style="endArrow=none;html=1;rounded=0;entryX=0.5;entryY=0;entryDx=0;entryDy=0;exitX=1;exitY=1;exitDx=0;exitDy=0;" edge="1" parent="1" source="VzrdgYR_R3UlmtkM9mJL-55" target="VzrdgYR_R3UlmtkM9mJL-5">
          <mxGeometry relative="1" as="geometry">
            <mxPoint x="610" y="300" as="sourcePoint" />
            <mxPoint x="770" y="300" as="targetPoint" />
          </mxGeometry>
        </mxCell>
        <mxCell id="LHrGl90DR_18odaKH2Ic-16" value="" style="endArrow=none;html=1;rounded=0;entryX=0.14;entryY=1;entryDx=0;entryDy=0;entryPerimeter=0;exitX=0.5;exitY=0;exitDx=0;exitDy=0;" edge="1" parent="1" source="VzrdgYR_R3UlmtkM9mJL-78" target="VzrdgYR_R3UlmtkM9mJL-5">
          <mxGeometry width="50" height="50" relative="1" as="geometry">
            <mxPoint x="762.36" y="450" as="sourcePoint" />
            <mxPoint x="709.999320225002" y="437.88854381999863" as="targetPoint" />
          </mxGeometry>
        </mxCell>
        <mxCell id="VzrdgYR_R3UlmtkM9mJL-78" value="ID_Empleado" style="ellipse;whiteSpace=wrap;html=1;align=center;fontStyle=4" parent="1" vertex="1">
          <mxGeometry x="620" y="460" width="100" height="40" as="geometry" />
        </mxCell>
        <mxCell id="LHrGl90DR_18odaKH2Ic-17" value="Total" style="ellipse;whiteSpace=wrap;html=1;align=center;" vertex="1" parent="1">
          <mxGeometry x="680" y="60" width="100" height="40" as="geometry" />
        </mxCell>
      </root>
    </mxGraphModel>
  </diagram>
</mxfile>
